<svg width="1109" height="1362" viewBox="0 0 1109 1362" fill="none" xmlns="http://www.w3.org/2000/svg">
<g id="Logo vectors">
<path id="Vector 1" d="M525.629 1361.32H574.664C574.664 1361.32 611.325 1359.03 627.364 1317.32C634.696 1314.12 719.138 1277.91 708.935 1219.25C707.102 1208.71 691.521 1211.01 691.521 1211.01L412.438 1247.67C412.438 1247.67 395.279 1253.62 400.981 1266.46C406.684 1279.29 451.391 1311.37 477.511 1320.07C494.009 1360.4 525.629 1361.32 525.629 1361.32Z" fill="#2A2A2A" stroke="black"/>
<line id="Line 1" x1="698.264" y1="1161.05" x2="409.229" y2="1197.39" stroke="#2A2A2A" stroke-width="32" stroke-linecap="round"/>
<line id="Line 2" x1="1023.53" y1="877.934" x2="926.24" y2="811.634" stroke="#2A2A2A" stroke-width="32" stroke-linecap="round"/>
<line id="Line 3" x1="1093" y1="617.514" x2="947.193" y2="617.514" stroke="#2A2A2A" stroke-width="32" stroke-linecap="round"/>
<line id="Line 4" x1="1024.52" y1="359.855" x2="959.911" y2="405.537" stroke="#2A2A2A" stroke-width="32" stroke-linecap="round"/>
<line id="Line 5" x1="181.326" y1="426.531" x2="78.8956" y2="359.697" stroke="#2A2A2A" stroke-width="32" stroke-linecap="round"/>
<line id="Line 6" x1="157.309" y1="616.682" x2="16.0844" y2="617.429" stroke="#2A2A2A" stroke-width="32" stroke-linecap="round"/>
<line id="Line 7" x1="179.241" y1="808.912" x2="80.9171" y2="876.871" stroke="#2A2A2A" stroke-width="32" stroke-linecap="round"/>
<g id="Vector 3">
<path d="M723.141 767.406C668.15 814.148 614.991 854.476 614.991 974.541C614.991 980.498 609.95 982.79 605.826 982.79H492.634C488.51 982.79 484.386 979.582 484.386 974.541C484.386 827.896 507.757 782.07 614.991 695.458C648.444 662.463 688.771 631.759 689.688 559.353C688.771 485.115 628.739 429.665 553.584 429.665C468.805 429.206 411.98 494.28 408.772 566.227C408.772 570.352 406.022 573.101 400.523 573.101H253.42C249.754 573.101 246.546 571.268 247.005 566.227C253.42 471.825 356.53 305.017 553.584 305.017C712.143 310.058 843.665 424.624 840.915 566.227C837.707 641.383 827.167 683.085 723.141 767.406Z" fill="#2A2A2A"/>
<path d="M328.117 349.468V236.735L180.556 171.662C173.682 168.454 174.141 155.164 180.556 151.04L540.752 2.56218C547.626 -0.187411 558.624 -0.187374 563.665 2.56218L922.028 151.04C931.193 154.706 929.36 168.912 922.028 172.12L896.365 183.096V315.099C913.321 323.806 916.071 331.596 916.071 346.719C916.071 360.467 912.404 364.133 907.364 370.09L915.612 467.701C916.071 471.367 913.779 474.116 911.488 474.116H857.871C855.121 474.116 852.83 471.367 853.288 467.701L861.537 370.09C854.663 363.675 850.997 355.884 850.997 346.719C850.997 332.971 856.038 324.722 870.244 315.099V194.268L773.092 235.819V349.927C718.559 296.768 623.24 266.981 553.584 266.981C461.472 266.981 385.4 301.809 328.117 349.468Z" fill="#2A2A2A"/>
</g>
<path id="Vector 2" d="M702.978 1108.35L403.731 1147.31C397.774 1148.22 389.983 1147.31 389.983 1134.02V1084.52C389.983 1084.52 367.07 1068.94 367.07 1045.57C363.862 1002.5 377.61 948.878 304.746 875.556C304.746 875.556 247.921 820.106 225.924 780.237C218.134 764.656 241.047 749.075 252.504 764.656C264.877 786.653 310.245 839.353 325.368 852.185C332.388 858.142 401.898 919.091 396.857 1034.57C398.232 1042.36 402.356 1049.7 412.896 1050.16H696.562C702.978 1049.7 709.852 1044.2 709.852 1034.57C716.267 996.996 701.145 945.212 770.343 867.308C786.84 848.518 839.082 804.067 855.122 762.823C861.996 750.908 886.742 762.823 879.41 780.696C832.667 867.308 786.382 867.308 747.888 958.961C724.516 1018.99 761.177 1047.86 709.852 1087.73C709.852 1087.73 713.06 1106.06 702.978 1108.35Z" fill="#2A2A2A" stroke="black"/>
</g>
</svg>
