<svg xmlns="http://www.w3.org/2000/svg" width="1109" height="1362" fill="none" viewBox="0 0 1109 1362"><g id="Logo vectors"><path id="Vector 1" fill="#2A2A2A" stroke="black" d="M525.629 1361.32h49.035s36.661-2.29 52.7-44c7.332-3.2 91.774-39.41 81.571-98.07-1.833-10.54-17.414-8.24-17.414-8.24l-279.083 36.66s-17.159 5.95-11.457 18.79c5.703 12.83 50.41 44.91 76.53 53.61 16.498 40.33 48.118 41.25 48.118 41.25Z"/><path id="Line 1" stroke="#2A2A2A" stroke-linecap="round" stroke-width="32" d="m698.264 1161.05-289.035 36.34"/><path id="Line 2" stroke="#2A2A2A" stroke-linecap="round" stroke-width="32" d="m1023.53 877.934-97.29-66.3"/><path id="Line 3" stroke="#2A2A2A" stroke-linecap="round" stroke-width="32" d="M1093 617.514H947.193"/><path id="Line 4" stroke="#2A2A2A" stroke-linecap="round" stroke-width="32" d="m1024.52 359.855-64.609 45.682"/><path id="Line 5" stroke="#2A2A2A" stroke-linecap="round" stroke-width="32" d="m181.326 426.531-102.43-66.834"/><path id="Line 6" stroke="#2A2A2A" stroke-linecap="round" stroke-width="32" d="m157.309 616.682-141.225.747"/><path id="Line 7" stroke="#2A2A2A" stroke-linecap="round" stroke-width="32" d="m179.241 808.912-98.324 67.959"/><g id="Vector 3"><path fill="#2A2A2A" d="M723.141 767.406c-54.991 46.742-108.15 87.07-108.15 207.135 0 5.957-5.041 8.249-9.165 8.249H492.634c-4.124 0-8.248-3.208-8.248-8.249 0-146.645 23.371-192.471 130.605-279.083 33.453-32.995 73.78-63.699 74.697-136.105-.917-74.238-60.949-129.688-136.104-129.688-84.779-.459-141.604 64.615-144.812 136.562 0 4.125-2.75 6.874-8.249 6.874H253.42c-3.666 0-6.874-1.833-6.415-6.874 6.415-94.402 109.525-261.21 306.579-261.21 158.559 5.041 290.081 119.607 287.331 261.21-3.208 75.156-13.748 116.858-117.774 201.179"/><path fill="#2A2A2A" d="M328.117 349.468V236.735l-147.561-65.073c-6.874-3.208-6.415-16.498 0-20.622L540.752 2.562c6.874-2.75 17.872-2.75 22.913 0L922.028 151.04c9.165 3.666 7.332 17.872 0 21.08l-25.663 10.976v132.003c16.956 8.707 19.706 16.497 19.706 31.62 0 13.748-3.667 17.414-8.707 23.371l8.248 97.611c.459 3.666-1.833 6.415-4.124 6.415h-53.617c-2.75 0-5.041-2.749-4.583-6.415l8.249-97.611c-6.874-6.415-10.54-14.206-10.54-23.371 0-13.748 5.041-21.997 19.247-31.62V194.268l-97.152 41.551v114.108c-54.533-53.159-149.852-82.946-219.508-82.946-92.112 0-168.184 34.828-225.467 82.487"/><path stroke="black" d="m896.365 183.096 25.663-10.976c7.332-3.208 9.165-17.414 0-21.08L563.665 2.562c-5.041-2.75-16.039-2.75-22.913 0L180.556 151.04c-6.415 4.124-6.874 17.414 0 20.622l147.561 65.073v112.733c57.283-47.659 133.355-82.487 225.467-82.487 69.656 0 164.975 29.787 219.508 82.946V235.819l97.152-41.551m26.121-11.172v132.003c16.956 8.707 19.706 16.497 19.706 31.62 0 13.748-3.667 17.414-8.707 23.371l8.248 97.611c.459 3.666-1.833 6.415-4.124 6.415h-53.617c-2.75 0-5.041-2.749-4.583-6.415l8.249-97.611c-6.874-6.415-10.54-14.206-10.54-23.371 0-13.748 5.041-21.997 19.247-31.62V194.268m26.121-11.172-26.121 11.172M614.991 974.541c0-120.065 53.159-160.392 108.15-207.135 104.026-84.321 114.566-126.023 117.774-201.179 2.75-141.603-128.772-256.169-287.331-261.21-197.054 0-300.164 166.808-306.579 261.21-.459 5.041 2.749 6.874 6.415 6.874h147.103c5.499 0 8.249-2.749 8.249-6.874 3.208-71.947 60.033-137.021 144.812-136.562 75.155 0 135.187 55.45 136.104 129.688-.917 72.406-41.244 103.11-74.697 136.105-107.234 86.612-130.605 132.438-130.605 279.083 0 5.041 4.124 8.249 8.248 8.249h113.192c4.124 0 9.165-2.292 9.165-8.249Z"/></g><path id="Vector 2" fill="#2A2A2A" stroke="black" d="m702.978 1108.35-299.247 38.96c-5.957.91-13.748 0-13.748-13.29v-49.5s-22.913-15.58-22.913-38.95c-3.208-43.07 10.54-96.692-62.324-170.014 0 0-56.825-55.45-78.822-95.319-7.79-15.581 15.123-31.162 26.58-15.581 12.373 21.997 57.741 74.697 72.864 87.529 7.02 5.957 76.53 66.906 71.489 182.385 1.375 7.79 5.499 15.13 16.039 15.59h283.666c6.416-.46 13.29-5.96 13.29-15.59 6.415-37.574-8.707-89.358 60.491-167.262 16.497-18.79 68.739-63.241 84.779-104.485 6.874-11.915 31.62 0 24.288 17.873-46.743 86.612-93.028 86.612-131.522 178.265-23.372 60.029 13.289 88.899-38.036 128.769 0 0 3.208 18.33-6.874 20.62Z"/></g></svg>